{"title":"Singham Return","uid":10783757,"size":734792936,"categoryP":"video","categoryS":"movies_dvdr","magnet":"?xt=urn:btih:6e6c8156746b2b68bb7647ca027882d047ad87d6&amp;dn=Singham+Return&amp;tr=udp%3A%2F%2Ftracker.openbittorrent.com%3A80&amp;tr=udp%3A%2F%2Fopen.demonii.com%3A1337&amp;tr=udp%3A%2F%2Ftracker.coppersurfer.tk%3A6969&amp;tr=udp%3A%2F%2Fexodus.desync.com%3A6969","seeders":4,"leechers":0,"uploader":"RatHacker","files":1,"time":1408194477,"description":"General\nUnique ID : \nComplete name : SINGHAM RETURNS (2014) - 1CD - DVDSCR-Rip - Hindi - x264 - MP3 - TEAM (ANU) EXCLUSIVE.mkv\nFormat : Matroska\nFormat version : Version 2\nFile size : 701 MiB\nDuration : 2h 18mn\nOverall bit rate : 708 Kbps\nEncoded date : UTC 2014-08-15 14:43:37\nWriting application : mkvmerge v7.1.0 ('Good Love') 32bit built on Jul 27 2014 12:59:18\nWriting library : libebml v1.3.0 + libmatroska v1.4.1\n\n\nVideo\nID : 1\nFormat : AVC\nFormat/Info : Advanced Video Codec\nFormat profile : &lt;a class=&quot;__cf_email__&quot; href=&quot;/cdn-cgi/l/email-protection&quot; data-cfemail=&quot;abe3c2ccc3ebe798859b&quot;&gt;[email&amp;#160;protected]&lt;/a&gt;&lt;script cf-hash='f9e31' type=&quot;text/javascript&quot;&gt;\n/* &lt;![CDATA[ */!function(){try{var t=&quot;currentScript&quot;in document?document.currentScript:function(){for(var t=document.getElementsByTagName(&quot;script&quot;),e=t.length;e--;)if(t[e].getAttribute(&quot;cf-hash&quot;))return t[e]}();if(t&amp;&amp;t.previousSibling){var e,r,n,i,c=t.previousSibling,a=c.getAttribute(&quot;data-cfemail&quot;);if(a){for(e=&quot;&quot;,r=parseInt(a.substr(0,2),16),n=2;a.length-n;n+=2)i=parseInt(a.substr(n,2),16)^r,e+=String.fromCharCode(i);e=document.createTextNode(e),c.parentNode.replaceChild(e,c)}}}catch(u){}}();/* ]]&gt; */&lt;/script&gt;\nFormat settings, CABAC : Yes\nFormat settings, ReFrames : 4 frames\nCodec ID : V_MPEG4/ISO/AVC\nDuration : 2h 18mn\nBit rate : 626 Kbps\nWidth : 640 pixels\nHeight : 272 pixels\nDisplay aspect ratio : 2.35:1\nFrame rate mode : Constant\nFrame rate : 29.970 fps\nColor space : YUV\nChroma subsampling : 4:2:0\nBit depth : 8 bits\nScan type : Progressive\nBits/(Pixel*Frame) : 0.120\nStream size : 608 MiB (87%)\nLanguage : English\nDefault : Yes\nForced : No\n\n\nAudio\nID : 2\nFormat : MPEG Audio\nFormat version : Version 1\nFormat profile : Layer 3\nMode : Joint stereo\nMode extension : MS Stereo\nCodec ID : A_MPEG/L3\nCodec ID/Hint : MP3\nDuration : 2h 18mn\nBit rate mode : Constant\nBit rate : 80.0 Kbps\nChannel(s) : 2 channels\nSampling rate : 32.0 KHz\nCompression mode : Lossy\nDelay relative to video : 8ms\nStream size : 79.2 MiB (11%)\nDefault : Yes\nForced : No\n\n\nSAMPLE WITH IN TORRENT \n\n\n\n\nimage\n\nimg class=&quot;lazyjs bbcodeImage&quot; src=&quot;//kastatic.com/images/blank.gif&quot; data-original=&quot;http://s8.postimg.org/jiud4lk4l/image.png \nimg class=&quot;lazyjs bbcodeImage&quot; src=&quot;//kastatic.com/images/blank.gif&quot; data-original=&quot;http://s8.postimg.org/6u02kxe05/image.png \nimg class=&quot;lazyjs bbcodeImage&quot; src=&quot;//kastatic.com/images/blank.gif&quot; data-original=&quot;http://s8.postimg.org/eb9a053j9/image.png \nimg class=&quot;lazyjs bbcodeImage&quot; src=&quot;//kastatic.com/images/blank.gif&quot; data-original=&quot;http://s8.postimg.org/5isbcgied/image.png \nimg class=&quot;lazyjs bbcodeImage&quot; src=&quot;//kastatic.com/images/blank.gif&quot; data-original=&quot;http://s8.postimg.org/sb6qejfvp/image.png \nimg class=&quot;lazyjs bbcodeImage&quot; src=&quot;//kastatic.com/images/blank.gif&quot; data-original=&quot;http://s8.postimg.org/9k4t4dlb9/image.png \nimg class=&quot;lazyjs bbcodeImage&quot; src=&quot;//kastatic.com/images/blank.gif&quot; data-original=&quot;http://s8.postimg.org/pl1zv38kl/image.png \nimg class=&quot;lazyjs bbcodeImage&quot; src=&quot;//kastatic.com/images/blank.gif&quot; data-original=&quot;http://s8.postimg.org/914b8ujad/image.png \nimg class=&quot;lazyjs bbcodeImage&quot; src=&quot;//kastatic.com/images/blank.gif&quot; data-original=&quot;http://s8.postimg.org/k39e7add1/image.png \nimg class=&quot;lazyjs bbcodeImage&quot; src=&quot;//kastatic.com/images/blank.gif&quot; data-original=&quot;http://s8.postimg.org/u1uctrmsl/image.png \nSource Own @ MoviesHacker...","torrent":{"xt":"urn:btih:6e6c8156746b2b68bb7647ca027882d047ad87d6","amp;dn":"Singham+Return","amp;tr":["udp%3A%2F%2Ftracker.openbittorrent.com%3A80","udp%3A%2F%2Fopen.demonii.com%3A1337","udp%3A%2F%2Ftracker.coppersurfer.tk%3A6969","udp%3A%2F%2Fexodus.desync.com%3A6969"],"infoHash":"6e6c8156746b2b68bb7647ca027882d047ad87d6","infoHashBuffer":{"type":"Buffer","data":[110,108,129,86,116,107,43,104,187,118,71,202,2,120,130,208,71,173,135,214]},"announce":[],"urlList":[]}}